# File created by Blade
# Date/Time:  Thu Jan 22 19:49:10 2015
#---------------------------------------------------------
:version 1.10
:name HOM
:units
  mass 1.0
  length 1.000000
  angle deg
:documentation
     Acclaim Skeleton File
:root
   axis xyz
   order TX TY TZ RX RY RZ
   position 0.000000 0.000000 0.000000
   orientation 0 0 0
:bonedata
   begin
      id 1
      name RightUpLeg_dum
      direction -1.000000 0.000000 0.000000
      length 4.478084
      axis 0.0 0.0 0.0 xyz
   end
   begin
      id 2
      name LeftUpLeg_dum
      direction 1.000000 0.000000 0.000000
      length 4.478084
      axis 0.0 0.0 0.0 xyz
   end
   begin
      id 3
      name Spine_dum
      direction 0.000000 1.000000 0.000000
      length 6.068208
      axis 0.0 0.0 0.0 xyz
   end
   begin
      id 4
      name RightUpLeg
      direction 0.000000 -1.000000 0.000000
      length 16.405774
      axis 0.0 0.0 0.0 xyz
      dof rx ry rz
   end
   begin
      id 5
      name RightLeg
      direction 0.000000 -1.000000 0.000000
      length 14.644143
      axis 0.0 0.0 0.0 xyz
      dof rx ry rz
   end
   begin
      id 6
      name RightFoot
      direction 0.000000 -0.258819 0.965926
      length 5.806150
      axis 15.0 0.0 0.0 xyz
      dof rx ry rz
   end
   begin
      id 7
      name RightToeBase
      direction 0.000000 0.000000 1.000000
      length 2.952750
      axis 0.0 0.0 0.0 xyz
      dof rx ry rz
   end
   begin
      id 8
      name LeftUpLeg
      direction 0.000000 -1.000000 0.000000
      length 16.405774
      axis 0.0 0.0 0.0 xyz
      dof rx ry rz
   end
   begin
      id 9
      name LeftLeg
      direction 0.000000 -1.000000 0.000000
      length 14.644143
      axis 0.0 0.0 0.0 xyz
      dof rx ry rz
   end
   begin
      id 10
      name LeftFoot
      direction 0.000000 -0.258819 0.965926
      length 5.806150
      axis 15.0 0.0 0.0 xyz
      dof rx ry rz
   end
   begin
      id 11
      name LeftToeBase
      direction 0.000000 0.000000 1.000000
      length 2.952750
      axis 0.0 0.0 0.0 xyz
      dof rx ry rz
   end
   begin
      id 12
      name Spine
      direction 0.000000 1.000000 0.000000
      length 0.000000
      axis 0.0 0.0 0.0 xyz
      dof rx ry rz
   end
   begin
      id 13
      name Spine_dum1
      direction 0.000000 1.000000 0.000000
      length 10.013923
      axis 0.0 0.0 0.0 xyz
   end
   begin
      id 14
      name Spine_dum2
      direction 0.000000 1.000000 0.000000
      length 10.013923
      axis 0.0 0.0 0.0 xyz
   end
   begin
      id 15
      name Spine_dum3
      direction 0.000000 1.000000 0.000000
      length 15.777476
      axis 0.0 0.0 0.0 xyz
   end
   begin
      id 16
      name RightShoulder
      direction -1.000000 0.000000 0.000000
      length 7.190220
      axis 0.0 0.0 90.0 xyz
      dof rx ry rz
   end
   begin
      id 17
      name RightArm
      direction -1.000000 0.000000 0.000000
      length 10.177469
      axis 0.0 0.0 90.0 xyz
      dof rx ry rz
   end
   begin
      id 18
      name RightForeArm
      direction -1.000000 0.000000 0.000000
      length 8.392114
      axis 0.0 0.0 90.0 xyz
      dof ry rz rx
   end
   begin
      id 19
      name RightHand
      direction -1.000000 0.000000 0.000000
      length 0.000000
      axis 0.0 0.0 90.0 xyz
      dof rx ry rz
   end
   begin
      id 20
      name RightHand_dum1
      direction -1.000000 0.000000 0.000000
      length 3.937000
      axis 0.0 0.0 90.0 xyz
   end
   begin
      id 21
      name RightHand_dum2
      direction 0.000000 0.000000 0.000000
      length 0.000000
      axis 0.0 0.0 90.0 xyz
   end
   begin
      id 22
      name RightHandThumb1
      direction 0.000000 0.000000 1.000000
      length 3.937000
      axis 0.0 0.0 90.0 xyz
      dof rx rz ry
   end
   begin
      id 23
      name LeftShoulder
      direction 1.000000 0.000000 0.000000
      length 7.190220
      axis 0.0 0.0 -90.0 xyz
      dof rx ry rz
   end
   begin
      id 24
      name LeftArm
      direction 1.000000 0.000000 0.000000
      length 10.177469
      axis 0.0 0.0 -90.0 xyz
      dof rx ry rz
   end
   begin
      id 25
      name LeftForeArm
      direction 1.000000 0.000000 0.000000
      length 8.392114
      axis 0.0 0.0 -90.0 xyz
      dof ry rz rx
   end
   begin
      id 26
      name LeftHand
      direction 1.000000 0.000000 0.000000
      length 0.000000
      axis 0.0 0.0 -90.0 xyz
      dof rx ry rz
   end
   begin
      id 27
      name LeftHand_dum1
      direction 1.000000 0.000000 0.000000
      length 3.937000
      axis 0.0 0.0 -90.0 xyz
   end
   begin
      id 28
      name LeftHand_dum2
      direction 0.000000 0.000000 0.000000
      length 0.000000
      axis 0.0 0.0 -90.0 xyz
   end
   begin
      id 29
      name LeftHandThumb1
      direction 0.000000 0.000000 1.000000
      length 3.937000
      axis 0.0 0.0 -90.0 xyz
      dof rx rz ry
   end
   begin
      id 30
      name Head
      direction 0.000000 1.000000 0.000000
      length 4.527550
      axis 0.0 0.0 0.0 xyz
      dof rx ry rz
   end
:hierarchy
   begin
      root RightUpLeg_dum LeftUpLeg_dum Spine_dum
      RightUpLeg_dum RightUpLeg
      LeftUpLeg_dum LeftUpLeg
      Spine_dum Spine
      RightUpLeg RightLeg
      RightLeg RightFoot
      RightFoot RightToeBase
      LeftUpLeg LeftLeg
      LeftLeg LeftFoot
      LeftFoot LeftToeBase
      Spine Spine_dum1 Spine_dum2 Spine_dum3
      Spine_dum1 RightShoulder
      Spine_dum2 LeftShoulder
      Spine_dum3 Head
      RightShoulder RightArm
      RightArm RightForeArm
      RightForeArm RightHand
      RightHand RightHand_dum1 RightHand_dum2
      RightHand_dum2 RightHandThumb1
      LeftShoulder LeftArm
      LeftArm LeftForeArm
      LeftForeArm LeftHand
      LeftHand LeftHand_dum1 LeftHand_dum2
      LeftHand_dum2 LeftHandThumb1
   end

# File created by Blade
# Date/Time:  Thu Jan 22 19:49:01 2015
# Frame Rate: 120.000 fps
#------------------------------------------------------
:FULLY-SPECIFIED
:DEGREES
963
root -2.147280 2.388804 -11.004968 -27.106277 1.609820 4.493946
RightUpLeg -63.785873 -0.274169 0.874748
RightLeg 6.164267 -0.000000 -0.000000
RightFoot 15.027656 -2.573823 4.565431
RightToeBase -10.133642 -0.000000 0.000000
LeftUpLeg -86.735016 -2.567944 -1.831291
LeftLeg 49.817036 -0.000000 -0.000000
LeftFoot 3.272024 9.604684 -10.058720
LeftToeBase -0.397210 -0.000000 0.000000
Spine 29.084995 -0.872732 -5.124584
RightShoulder -17.392797 -28.325009 -11.540223
RightArm 13.598716 -39.183299 61.533366
RightForeArm 48.819292 -0.000000 72.051089
RightHand -11.764669 0.000000 8.559499
RightHandThumb1 -24.326973 -0.000000 -32.862282
LeftShoulder -21.109833 19.788956 16.356428
LeftArm -11.416517 34.572816 -90.588894
LeftForeArm 2.822196 -0.000000 56.562086
LeftHand -19.268059 -0.000000 -6.595478
LeftHandThumb1 -26.253704 0.000000 33.147579
Head -7.944684 1.395356 -2.757819
964
root -2.150628 2.389253 -11.025430 -27.055836 1.735406 4.637576
RightUpLeg -63.855824 -0.237364 0.582129
RightLeg 6.147827 -0.000000 -0.000000
RightFoot 14.977898 -2.487827 4.671309
RightToeBase -10.256203 -0.000000 0.000000
LeftUpLeg -87.758255 -2.690615 -2.396594
LeftLeg 51.200574 -0.000000 -0.000000
LeftFoot 3.452440 9.831918 -9.791260
LeftToeBase -1.179777 -0.000000 0.000000
Spine 29.194009 -1.041299 -5.214136
RightShoulder -17.544334 -28.404043 -11.564295
RightArm 13.492398 -39.014937 61.613374
RightForeArm 48.343520 -0.000000 72.355241
RightHand -11.640246 -0.000000 8.989145
RightHandThumb1 -24.326973 -0.000000 -32.862282
LeftShoulder -21.110005 19.533901 16.308834
LeftArm -11.519344 34.391791 -90.600418
LeftForeArm 3.002769 -0.000000 56.404045
LeftHand -19.171758 0.000000 -6.823642
LeftHandThumb1 -26.253704 0.000000 33.147579
Head -8.175893 1.441742 -3.042134
965
root -2.157010 2.391187 -11.042423 -27.035277 1.829531 4.753709
RightUpLeg -63.906424 -0.218015 0.397760
RightLeg 6.182324 -0.000000 -0.000000
RightFoot 14.848687 -2.179121 4.625550
RightToeBase -10.191320 -0.000000 0.000000
LeftUpLeg -88.787540 -2.800832 -2.953759
LeftLeg 52.656794 -0.000000 -0.000000
LeftFoot 3.421917 9.981821 -9.823280
LeftToeBase -1.015466 -0.000000 0.000000
Spine 29.318402 -1.156020 -5.271731
RightShoulder -17.670937 -28.464425 -11.569708
RightArm 13.352086 -38.849852 61.716826
RightForeArm 47.950449 -0.000000 72.656695
RightHand -11.632396 0.000000 9.384882
RightHandThumb1 -24.326973 -0.000000 -32.862282
LeftShoulder -21.139383 19.405938 16.244650
LeftArm -11.426828 34.322970 -90.518452
LeftForeArm 3.203062 -0.000000 56.249139
LeftHand -19.161223 -0.000000 -7.007501
LeftHandThumb1 -26.253704 0.000000 33.147579
Head -8.370235 1.473283 -3.255260
966
root -2.166786 2.390103 -11.059084 -26.978296 1.891847 4.831197
RightUpLeg -63.986071 -0.134258 0.208799
RightLeg 6.203278 -0.000000 -0.000000
RightFoot 14.777821 -1.980354 4.722764
RightToeBase -10.082134 -0.000000 0.000000
LeftUpLeg -89.880421 -2.884203 -3.479234
LeftLeg 54.135370 -0.000000 -0.000000
LeftFoot 3.406021 10.001912 -10.303423
LeftToeBase -1.211979 -0.000000 0.000000
Spine 29.388315 -1.275970 -5.267249
RightShoulder -17.747302 -28.532782 -11.646950
RightArm 13.227643 -38.751743 61.849684
RightForeArm 47.399625 -0.000000 72.943772
RightHand -11.516144 -0.000000 9.601576
RightHandThumb1 -24.326973 -0.000000 -32.862282
LeftShoulder -21.110769 19.199835 16.208680
LeftArm -11.488350 34.224010 -90.511571
LeftForeArm 3.499530 -0.000000 56.122434
LeftHand -19.161383 -0.000000 -7.219731
LeftHandThumb1 -26.253704 0.000000 33.147579
Head -8.515169 1.504176 -3.511908
